<?xml version="1.0" standalone="no"?>
<!DOCTYPE svg PUBLIC "-//W3C//DTD SVG 20010904//EN"
 "http://www.w3.org/TR/2001/REC-SVG-20010904/DTD/svg10.dtd">
<svg version="1.0" xmlns="http://www.w3.org/2000/svg"
 width="685.000000pt" height="685.000000pt" viewBox="0 0 685.000000 685.000000"
 preserveAspectRatio="xMidYMid meet">
<metadata>
Created by potrace 1.11, written by Peter Selinger 2001-2013
</metadata>
<g transform="translate(0.000000,685.000000) scale(0.100000,-0.100000)"
fill="#000000" stroke="none">
<path d="M3914 6656 c-33 -33 -36 -40 -31 -79 4 -30 15 -50 37 -69 94 -85 227
48 143 142 -20 22 -40 33 -70 37 -39 5 -46 2 -79 -31z"/>
<path d="M2234 6550 c-12 -4 -31 -21 -43 -36 -48 -61 -7 -150 76 -161 39 -5
46 -2 78 30 48 48 49 95 1 143 -35 35 -68 42 -112 24z"/>
<path d="M3965 6071 c-33 -14 -56 -47 -62 -89 -7 -54 33 -101 94 -109 39 -5
46 -2 79 31 33 33 36 40 31 79 -10 73 -77 114 -142 88z"/>
<path d="M3164 5936 c-33 -33 -36 -40 -31 -79 4 -30 15 -50 38 -71 27 -24 38
-27 73 -23 126 17 125 187 -1 204 -39 5 -46 2 -79 -31z"/>
<path d="M3434 5800 c-34 -13 -64 -59 -64 -97 0 -50 54 -103 105 -103 52 0
105 53 105 105 0 29 -8 45 -34 71 -35 35 -68 42 -112 24z"/>
<path d="M5535 5777 c-48 -48 -49 -95 -1 -143 26 -26 42 -34 71 -34 52 0 105
53 105 104 0 51 -42 95 -97 103 -39 5 -46 2 -78 -30z"/>
<path d="M4174 5756 c-33 -33 -36 -40 -31 -79 4 -30 15 -50 38 -71 27 -24 38
-27 73 -23 126 17 125 187 -1 204 -39 5 -46 2 -79 -31z"/>
<path d="M2844 5726 c-26 -26 -34 -42 -34 -70 0 -51 42 -95 97 -103 39 -5 46
-2 79 31 33 33 36 40 31 79 -8 55 -52 97 -103 97 -28 0 -44 -8 -70 -34z"/>
<path d="M3730 5733 c-22 -20 -33 -40 -37 -69 -4 -35 -1 -46 23 -73 21 -23 41
-34 71 -38 39 -5 46 -2 79 31 33 33 36 40 31 79 -7 55 -52 97 -102 97 -24 0
-44 -9 -65 -27z"/>
<path d="M4574 5696 c-38 -38 -43 -69 -19 -121 31 -64 108 -74 161 -21 53 53
43 130 -21 161 -52 24 -83 19 -121 -19z"/>
<path d="M2451 5604 c-23 -21 -34 -41 -38 -70 -4 -35 -1 -46 23 -73 21 -23 41
-34 71 -38 39 -5 46 -2 78 30 27 27 35 43 35 71 0 51 -42 95 -96 103 -35 4
-46 1 -73 -23z"/>
<path d="M1695 5537 c-48 -48 -49 -95 -1 -143 94 -94 237 37 149 136 -20 22
-40 33 -70 37 -39 5 -46 2 -78 -30z"/>
<path d="M3563 5515 c-32 -32 -35 -39 -30 -78 8 -55 52 -97 103 -97 51 0 104
53 104 105 0 29 -8 45 -34 71 -48 48 -95 47 -143 -1z"/>
<path d="M5084 5540 c-12 -4 -31 -21 -44 -37 -48 -61 5 -163 86 -163 51 0 104
53 104 105 0 29 -8 45 -34 71 -35 35 -68 42 -112 24z"/>
<path d="M3134 5486 c-26 -26 -34 -42 -34 -71 0 -52 53 -105 105 -105 52 0
105 53 105 105 0 52 -53 105 -105 105 -29 0 -45 -8 -71 -34z"/>
<path d="M4335 5487 c-27 -27 -35 -43 -35 -72 0 -29 8 -45 35 -72 32 -32 39
-35 78 -30 55 7 97 52 97 102 0 50 -42 95 -97 102 -39 5 -46 2 -78 -30z"/>
<path d="M2094 5436 c-33 -33 -36 -40 -31 -79 8 -55 52 -97 103 -97 51 0 104
53 104 104 0 51 -42 95 -97 103 -39 5 -46 2 -79 -31z"/>
<path d="M3834 5400 c-31 -12 -64 -59 -64 -89 0 -37 21 -78 47 -92 18 -10 20
-16 12 -36 -17 -45 -10 -74 25 -109 26 -26 42 -34 70 -34 51 0 95 42 103 97 5
39 2 46 -29 77 -23 23 -32 39 -27 48 20 31 9 80 -25 114 -35 35 -68 42 -112
24z"/>
<path d="M4684 5376 c-33 -33 -36 -40 -31 -78 3 -22 12 -47 20 -55 13 -13 11
-18 -15 -42 -20 -18 -31 -39 -35 -68 -5 -39 -2 -46 30 -78 27 -27 43 -35 71
-35 77 0 135 102 89 159 -19 23 -19 23 14 56 25 25 33 42 33 69 0 52 -43 97
-98 103 -38 4 -46 1 -78 -31z"/>
<path d="M2894 5350 c-27 -11 -64 -57 -64 -81 0 -11 -7 -19 -16 -19 -9 0 -31
-15 -50 -34 -47 -47 -47 -91 1 -142 32 -34 38 -36 77 -31 47 6 98 52 98 87 0
12 7 20 16 20 9 0 31 15 50 34 26 26 34 42 34 71 0 29 -8 45 -34 71 -35 35
-68 42 -112 24z"/>
<path d="M3404 5350 c-38 -15 -66 -61 -62 -102 3 -34 2 -36 -14 -22 -28 26
-89 29 -118 6 -19 -15 -29 -17 -46 -10 -36 17 -90 1 -119 -34 -37 -44 -30
-100 16 -142 27 -24 38 -27 71 -23 22 3 47 12 57 21 11 10 21 12 31 6 30 -19
79 -11 112 19 27 24 32 36 33 74 0 41 1 44 16 31 27 -25 83 -29 117 -8 62 36
70 108 18 160 -35 35 -68 42 -112 24z"/>
<path d="M4154 5326 c-47 -47 -47 -95 -1 -141 23 -23 31 -38 26 -47 -5 -7 -9
-28 -9 -47 0 -27 8 -42 40 -72 l39 -38 -32 5 c-18 3 -43 2 -55 -3 -20 -8 -30
-3 -57 24 -46 46 -94 46 -141 -1 -43 -43 -46 -90 -8 -135 28 -33 82 -49 116
-34 16 7 27 2 53 -24 25 -25 42 -33 68 -33 39 0 91 36 102 70 5 17 12 19 50
13 41 -5 47 -3 81 31 33 33 36 40 31 79 -4 31 -14 50 -40 72 -22 20 -36 43
-41 67 -4 23 -18 46 -35 61 -21 17 -26 28 -20 38 5 8 9 29 9 48 0 26 -8 41
-36 67 -49 47 -93 47 -140 0z"/>
<path d="M1054 5306 c-48 -48 -47 -95 1 -143 32 -32 39 -35 78 -30 55 8 97 52
97 103 0 51 -53 104 -105 104 -29 0 -45 -8 -71 -34z"/>
<path d="M2483 5328 c-26 -12 -53 -65 -53 -102 0 -41 48 -86 97 -93 39 -5 46
-2 79 31 33 33 36 40 31 79 -10 76 -86 118 -154 85z"/>
<path d="M5433 5215 c-32 -32 -35 -39 -30 -78 14 -104 148 -134 192 -42 24 52
19 83 -19 121 -48 48 -95 47 -143 -1z"/>
<path d="M1915 5191 c-33 -14 -56 -47 -62 -90 -5 -36 -2 -44 30 -76 27 -27 43
-35 72 -35 29 0 45 8 72 35 32 32 35 39 30 78 -10 73 -77 114 -142 88z"/>
<path d="M3624 5190 c-29 -12 -64 -58 -64 -85 0 -41 20 -81 50 -99 21 -12 30
-25 30 -43 0 -13 7 -38 17 -53 50 -86 176 -54 190 48 5 40 3 45 -36 82 -28 27
-41 48 -41 66 0 37 -59 94 -96 93 -16 0 -39 -4 -50 -9z"/>
<path d="M4975 5087 c-49 -49 -49 -95 0 -144 32 -32 39 -35 78 -29 55 8 75 9
113 1 45 -10 100 18 113 57 18 52 13 78 -24 115 -32 32 -39 35 -78 29 -58 -9
-76 -9 -124 -1 -39 7 -45 5 -78 -28z"/>
<path d="M2261 5044 c-23 -21 -34 -41 -38 -71 -5 -39 -2 -46 30 -78 27 -27 43
-35 71 -35 51 0 95 42 103 96 4 35 1 46 -23 73 -21 23 -41 34 -70 38 -35 4
-46 1 -73 -23z"/>
<path d="M3404 5006 c-48 -48 -47 -95 1 -143 32 -32 39 -35 78 -30 30 4 50 15
71 38 24 27 27 38 23 73 -8 54 -52 96 -103 96 -28 0 -44 -8 -70 -34z"/>
<path d="M2685 4951 c-33 -14 -56 -47 -62 -90 -5 -36 -2 -44 30 -76 27 -27 43
-35 72 -35 29 0 45 8 72 35 32 32 35 39 30 78 -10 73 -77 114 -142 88z"/>
<path d="M3106 4928 c-28 -28 -37 -32 -59 -24 -39 14 -99 -7 -120 -43 -45 -77
7 -161 100 -161 15 0 39 14 58 33 23 23 38 31 47 26 32 -20 80 -9 115 26 32
32 35 39 30 78 -12 92 -108 128 -171 65z"/>
<path d="M1404 4930 c-34 -13 -64 -59 -64 -97 0 -50 54 -103 105 -103 52 0
105 53 105 105 0 29 -8 45 -34 71 -35 35 -68 42 -112 24z"/>
<path d="M2044 4930 c-34 -13 -64 -59 -64 -97 0 -50 54 -103 105 -103 52 0
105 53 105 105 0 29 -8 45 -34 71 -35 35 -68 42 -112 24z"/>
<path d="M5434 4906 c-20 -20 -34 -44 -34 -58 0 -22 -4 -24 -30 -20 -18 3 -40
-3 -56 -13 -25 -16 -27 -16 -56 12 -23 22 -38 28 -74 28 -39 0 -50 -5 -75 -33
-77 -86 19 -209 126 -160 14 6 25 16 25 22 0 6 4 5 9 -2 5 -9 -3 -24 -26 -47
-47 -47 -46 -94 2 -142 32 -32 40 -35 76 -30 23 3 52 15 65 28 27 25 41 81 27
111 -7 16 -2 27 24 53 18 18 33 42 33 54 0 17 6 21 36 21 28 0 44 8 71 35 32
32 35 39 30 78 -8 55 -52 97 -103 97 -28 0 -44 -8 -70 -34z"/>
<path d="M4655 4877 c-21 -21 -35 -45 -35 -60 0 -25 0 -25 -34 9 -19 19 -43
34 -54 34 -12 0 -24 5 -27 10 -10 16 -64 12 -96 -7 -55 -32 -63 -117 -16 -161
26 -24 97 -52 134 -52 38 0 93 60 94 102 0 28 2 30 9 12 10 -24 57 -64 75 -64
7 0 -2 -15 -21 -34 -45 -45 -47 -92 -5 -138 25 -28 36 -33 76 -33 40 0 51 5
77 34 24 27 29 40 26 71 l-3 38 28 -24 c68 -57 167 -3 167 91 0 17 -12 39 -34
61 -45 45 -92 47 -138 5 -27 -24 -32 -36 -33 -74 l0 -44 -28 23 c-16 13 -35
24 -43 24 -8 0 -2 11 16 28 22 19 33 39 37 68 4 35 1 46 -23 73 -21 23 -41 34
-71 38 -39 5 -46 2 -78 -30z"/>
<path d="M2364 4846 c-26 -26 -34 -42 -34 -70 0 -51 42 -95 96 -103 35 -4 46
-1 73 23 23 21 34 41 38 71 5 39 2 46 -30 78 -48 48 -95 49 -143 1z"/>
<path d="M1774 4790 c-34 -13 -64 -59 -64 -97 0 -27 8 -43 35 -70 32 -32 39
-35 78 -30 30 4 50 15 71 38 24 27 27 38 23 73 -10 72 -77 113 -143 86z"/>
<path d="M2685 4690 c-21 -16 -43 -30 -50 -30 -7 0 -25 -14 -39 -31 -38 -45
-35 -92 8 -135 42 -42 90 -46 133 -10 15 13 37 26 49 30 35 11 65 52 71 95 5
36 2 44 -30 76 -46 46 -89 47 -142 5z"/>
<path d="M1194 4630 c-33 -13 -64 -59 -64 -96 0 -48 43 -94 96 -101 35 -4 46
-1 73 23 23 21 34 41 38 71 5 39 2 46 -30 78 -36 36 -68 43 -113 25z"/>
<path d="M2070 4613 c-45 -41 -51 -98 -15 -141 31 -37 81 -50 125 -32 17 7 30
17 30 23 0 5 9 2 19 -7 11 -10 37 -20 59 -23 54 -7 101 33 109 94 5 39 2 46
-30 78 -39 39 -86 47 -125 20 -19 -14 -24 -14 -51 0 -45 23 -86 19 -121 -12z"/>
<path d="M1515 4581 c-33 -14 -56 -47 -62 -90 -5 -36 -2 -44 30 -76 48 -48 95
-49 143 -1 26 26 34 42 34 71 0 29 -8 45 -34 71 -35 35 -68 42 -111 25z"/>
<path d="M4954 4580 c-34 -13 -64 -59 -64 -97 0 -27 8 -43 35 -70 32 -32 39
-35 78 -30 55 8 97 52 97 103 0 28 -8 44 -34 70 -35 35 -68 42 -112 24z"/>
<path d="M1831 4484 c-39 -33 -50 -85 -27 -129 15 -28 16 -34 2 -60 -9 -17
-16 -40 -16 -51 0 -17 -8 -23 -39 -28 -122 -19 -117 -186 6 -203 39 -5 46 -2
78 30 25 25 35 44 35 66 0 28 3 31 31 31 22 0 41 10 65 34 38 38 43 73 19 120
-14 26 -14 33 0 62 24 51 19 82 -19 120 -43 43 -90 46 -135 8z"/>
<path d="M2392 4435 c-16 -14 -33 -36 -36 -50 -4 -14 -26 -44 -50 -68 -38 -39
-45 -42 -62 -30 -54 40 -141 -8 -151 -84 -5 -38 -2 -46 29 -77 l34 -34 -23
-26 c-36 -42 -31 -91 13 -132 49 -47 93 -47 140 0 19 19 34 42 34 52 0 14 3
15 12 6 24 -24 78 -14 114 22 38 38 43 69 18 122 -14 30 -14 35 0 56 9 12 16
28 16 36 0 7 19 31 41 52 39 37 41 42 36 82 -12 87 -102 127 -165 73z m-118
-320 c-4 -8 -11 -15 -16 -15 -6 0 -5 6 2 15 7 8 14 15 16 15 2 0 1 -7 -2 -15z"/>
<path d="M4104 4450 c-34 -13 -64 -59 -64 -97 0 -50 54 -103 104 -103 51 0 95
42 103 97 5 39 2 46 -30 78 -36 36 -68 43 -113 25z"/>
<path d="M2715 4391 c-33 -14 -56 -47 -62 -89 -7 -54 33 -101 94 -109 39 -5
46 -2 79 31 33 33 36 40 31 79 -10 73 -77 114 -142 88z"/>
<path d="M1213 4285 c-32 -32 -35 -39 -30 -78 8 -55 52 -97 103 -97 51 0 104
53 104 105 0 29 -8 45 -34 71 -48 48 -95 47 -143 -1z"/>
<path d="M6494 4124 c-90 -44 -60 -177 42 -191 35 -4 46 -1 73 23 23 21 34 41
38 71 5 39 2 46 -30 78 -39 39 -72 44 -123 19z"/>
<path d="M1455 4101 c-33 -14 -56 -47 -62 -90 -5 -36 -2 -44 30 -76 27 -27 43
-35 72 -35 29 0 45 8 72 35 32 32 35 39 30 78 -10 73 -77 114 -142 88z"/>
<path d="M3005 4057 c-54 -54 -45 -131 20 -162 52 -24 83 -19 121 19 26 26 34
42 34 70 0 51 -42 95 -97 103 -39 5 -46 2 -78 -30z"/>
<path d="M1898 4013 c-46 -29 -61 -99 -32 -142 16 -22 16 -23 -4 -12 -40 21
-82 13 -118 -23 -19 -19 -34 -41 -34 -49 0 -9 -14 -17 -39 -21 -51 -8 -91 -53
-91 -103 0 -27 8 -43 35 -70 32 -32 39 -35 78 -30 44 6 97 51 97 82 0 10 10
15 31 15 22 0 41 10 65 34 37 37 43 73 20 118 -14 26 -14 26 9 16 33 -15 88
-2 114 26 13 13 25 42 28 65 5 36 2 44 -30 76 -40 40 -83 46 -129 18z"/>
<path d="M1164 4001 c-12 -5 -31 -22 -44 -38 -48 -61 5 -163 86 -163 51 0 104
53 104 104 0 69 -83 124 -146 97z"/>
<path d="M94 3836 c-33 -33 -36 -40 -31 -79 4 -30 15 -50 38 -71 27 -24 38
-27 73 -23 126 17 125 187 -1 204 -39 5 -46 2 -79 -31z"/>
<path d="M2095 3837 c-25 -25 -35 -44 -35 -66 0 -28 -3 -31 -31 -31 -46 0 -99
-56 -99 -104 0 -51 42 -95 97 -103 39 -5 46 -2 78 30 25 25 35 44 35 66 0 28
3 31 31 31 46 0 99 56 99 104 0 51 -42 95 -97 103 -39 5 -46 2 -78 -30z"/>
<path d="M1244 3730 c-34 -13 -64 -59 -64 -97 0 -50 54 -103 105 -103 29 0 45
8 71 34 47 47 47 91 0 140 -34 37 -67 45 -112 26z"/>
<path d="M5194 3706 c-26 -26 -34 -42 -34 -70 0 -51 42 -95 97 -103 39 -5 46
-2 79 31 33 33 36 40 31 79 -8 55 -52 97 -103 97 -28 0 -44 -8 -70 -34z"/>
<path d="M924 3650 c-34 -13 -64 -59 -64 -97 0 -27 8 -43 35 -70 32 -32 39
-35 78 -30 55 8 97 52 97 103 0 28 -8 44 -34 70 -35 35 -68 42 -112 24z"/>
<path d="M3890 3633 c-22 -20 -33 -40 -37 -70 -5 -39 -2 -46 30 -78 48 -48 95
-49 143 -1 26 26 34 42 34 71 0 29 -8 45 -34 71 -44 44 -92 46 -136 7z"/>
<path d="M5755 3627 c-27 -27 -35 -43 -35 -72 0 -29 8 -45 35 -72 32 -32 39
-35 78 -30 55 7 97 52 97 102 0 50 -42 95 -97 102 -39 5 -46 2 -78 -30z"/>
<path d="M4501 3604 c-23 -21 -34 -41 -38 -71 -5 -39 -2 -46 30 -78 48 -48 95
-49 143 -1 26 26 34 42 34 70 0 51 -42 95 -96 103 -35 4 -46 1 -73 -23z"/>
<path d="M2064 3496 c-47 -47 -47 -95 0 -142 48 -48 95 -47 143 1 32 32 35 39
30 78 -8 55 -52 97 -103 97 -28 0 -44 -8 -70 -34z"/>
<path d="M4184 3490 c-34 -13 -64 -59 -64 -97 0 -26 8 -43 34 -69 48 -48 95
-47 143 1 32 32 35 39 30 78 -10 73 -77 114 -143 87z"/>
<path d="M1832 3445 c-17 -14 -33 -38 -37 -54 -6 -27 -8 -28 -50 -23 -41 4
-48 1 -80 -31 -39 -39 -44 -70 -19 -122 24 -52 91 -70 144 -38 31 18 50 51 50
85 0 17 3 19 12 10 24 -24 78 -14 114 22 92 92 -35 235 -134 151z"/>
<path d="M5035 3417 c-27 -27 -35 -43 -35 -72 0 -29 8 -45 35 -72 32 -32 40
-35 77 -30 53 7 88 42 95 94 7 55 -33 102 -94 110 -39 5 -46 2 -78 -30z"/>
<path d="M4744 3410 c-12 -4 -31 -21 -44 -37 -17 -22 -21 -37 -17 -72 4 -38 1
-46 -25 -70 -20 -18 -31 -39 -35 -68 -5 -39 -2 -46 30 -78 49 -49 95 -49 144
0 33 33 35 39 30 80 -6 40 -4 46 30 80 32 32 35 39 30 78 -10 73 -77 114 -143
87z"/>
<path d="M5464 3410 c-34 -13 -64 -59 -64 -97 0 -50 54 -103 104 -103 51 0 95
42 103 97 5 39 2 46 -30 78 -36 36 -68 43 -113 25z"/>
<path d="M1354 3380 c-34 -13 -64 -59 -64 -97 0 -50 54 -103 105 -103 52 0
105 53 105 105 0 29 -8 45 -34 71 -35 35 -68 42 -112 24z"/>
<path d="M3565 3337 c-49 -49 -49 -95 0 -144 33 -33 39 -35 80 -30 41 4 45 3
45 -18 0 -27 35 -73 64 -85 18 -7 16 -9 -12 -9 -49 -1 -102 -56 -102 -106 0
-52 53 -105 104 -105 51 0 95 42 103 97 5 39 2 46 -30 78 -32 32 -33 35 -14
36 12 1 25 1 29 0 3 0 21 16 38 36 28 32 32 41 27 77 -4 29 -15 49 -38 70 -27
24 -38 28 -75 23 -41 -4 -44 -3 -44 19 0 39 -49 84 -97 91 -39 5 -46 2 -78
-30z"/>
<path d="M2069 3279 c-34 -13 -63 -67 -57 -106 4 -29 3 -30 -18 -21 -60 28
-144 -30 -144 -98 0 -48 43 -94 95 -101 34 -4 46 -1 72 21 27 22 32 24 43 11
10 -12 8 -16 -13 -24 -37 -14 -67 -59 -67 -98 0 -26 8 -43 34 -69 19 -19 41
-34 50 -34 9 0 35 -19 56 -41 37 -39 42 -41 81 -36 54 7 89 41 96 93 4 33 1
45 -21 71 -15 17 -39 34 -55 38 -15 3 -38 19 -49 35 -21 28 -21 29 -2 35 29 9
70 63 70 93 0 15 -6 39 -14 53 -9 17 -12 44 -9 72 5 38 2 48 -23 76 -32 35
-81 47 -125 30z"/>
<path d="M1004 3226 c-69 -69 -23 -176 76 -176 47 0 100 55 100 105 0 52 -53
105 -105 105 -29 0 -45 -8 -71 -34z"/>
<path d="M3994 3196 c-48 -48 -47 -95 1 -143 32 -32 39 -35 78 -30 55 8 97 52
97 103 0 51 -53 104 -105 104 -29 0 -45 -8 -71 -34z"/>
<path d="M4234 3176 c-26 -26 -34 -42 -34 -71 0 -29 8 -45 34 -71 68 -68 176
-22 176 76 0 47 -55 100 -105 100 -29 0 -45 -8 -71 -34z"/>
<path d="M5134 3146 c-26 -26 -34 -42 -34 -71 0 -52 53 -105 105 -105 29 0 45
8 71 34 51 51 44 124 -16 159 -46 28 -87 22 -126 -17z"/>
<path d="M5375 3097 c-48 -48 -49 -95 -1 -143 26 -26 42 -34 71 -34 52 0 105
53 105 104 0 51 -42 95 -97 103 -39 5 -46 2 -78 -30z"/>
<path d="M1510 3073 c-22 -20 -33 -40 -37 -70 -5 -39 -2 -46 30 -78 31 -31 34
-39 30 -78 -7 -57 30 -104 88 -113 25 -4 39 -12 39 -21 0 -8 16 -31 35 -50 33
-33 39 -35 80 -30 41 4 48 2 79 -29 47 -47 95 -47 142 0 48 48 47 95 -1 143
-33 33 -39 35 -80 30 -41 -4 -48 -2 -79 29 -24 24 -43 34 -65 34 -22 0 -31 5
-31 16 0 9 -15 31 -34 50 -31 31 -33 38 -29 79 5 41 3 47 -30 80 -45 45 -92
48 -137 8z"/>
<path d="M2605 3091 c-33 -14 -56 -47 -62 -89 -7 -54 33 -101 94 -109 39 -5
46 -2 78 30 48 48 49 95 1 143 -35 35 -68 42 -111 25z"/>
<path d="M4554 3041 c-28 -12 -64 -59 -64 -82 0 -13 -7 -19 -21 -19 -12 0 -36
-15 -55 -34 -26 -26 -34 -42 -34 -71 0 -29 8 -45 34 -71 26 -26 42 -34 71 -34
29 0 45 8 71 34 19 19 34 43 34 55 0 12 6 21 14 21 8 0 21 3 30 6 12 5 16 0
16 -19 0 -34 43 -84 79 -92 24 -5 30 -12 35 -45 6 -38 52 -90 81 -90 18 0 30
-53 13 -59 -7 -2 -28 -19 -45 -37 -64 -63 -28 -159 64 -171 39 -5 46 -2 78 30
37 37 48 90 23 115 -9 9 -8 12 6 12 10 0 33 15 52 34 26 26 34 42 34 71 0 29
-8 45 -34 71 -19 19 -41 34 -50 34 -9 0 -16 8 -16 19 0 29 -46 79 -80 86 -22
5 -30 12 -30 27 0 20 1 20 19 4 11 -10 38 -20 60 -23 36 -5 44 -2 76 30 27 27
35 43 35 72 0 29 -8 45 -35 72 -32 32 -39 35 -78 30 -49 -7 -97 -52 -97 -92
l0 -26 -29 22 c-23 17 -39 21 -70 16 -38 -5 -41 -3 -41 19 0 57 -89 109 -146
85z"/>
<path d="M3965 2937 c-46 -46 -48 -92 -6 -139 25 -29 36 -33 79 -34 28 0 57
-6 66 -13 8 -7 33 -15 55 -18 36 -5 44 -2 76 30 49 49 49 95 0 144 -32 32 -40
35 -79 31 -31 -4 -49 -1 -59 9 -8 8 -33 17 -55 20 -37 5 -45 2 -77 -30z"/>
<path d="M5645 2857 c-38 -38 -45 -72 -22 -120 14 -30 62 -57 102 -57 41 0 95
59 95 104 0 51 -42 95 -97 103 -39 5 -46 2 -78 -30z"/>
<path d="M1134 2850 c-12 -4 -31 -21 -43 -36 -48 -61 -7 -150 76 -161 39 -5
46 -2 78 30 48 48 49 95 1 143 -35 35 -68 42 -112 24z"/>
<path d="M5324 2806 c-26 -26 -34 -42 -34 -70 0 -51 42 -95 97 -103 39 -5 46
-2 79 31 33 33 36 40 31 79 -8 55 -52 97 -103 97 -28 0 -44 -8 -70 -34z"/>
<path d="M604 2770 c-34 -13 -64 -59 -64 -97 0 -27 8 -43 35 -70 32 -32 39
-35 78 -30 55 8 97 52 97 103 0 28 -8 44 -34 70 -35 35 -68 42 -112 24z"/>
<path d="M4394 2690 c-65 -26 -83 -109 -35 -162 25 -28 36 -33 76 -33 40 0 51
5 77 34 26 29 30 39 25 75 -10 72 -77 113 -143 86z"/>
<path d="M1380 2653 c-22 -20 -33 -40 -37 -70 -5 -39 -2 -46 30 -78 48 -48 95
-49 143 -1 47 47 47 95 0 142 -44 44 -92 46 -136 7z"/>
<path d="M2174 2616 c-33 -33 -36 -40 -31 -79 8 -61 55 -101 110 -94 52 7 87
42 94 94 7 55 -33 102 -94 110 -39 5 -46 2 -79 -31z"/>
<path d="M6634 2561 c-34 -15 -64 -60 -64 -98 0 -27 8 -43 35 -70 32 -32 40
-35 77 -30 53 7 88 42 95 94 4 34 1 45 -23 72 -31 34 -83 48 -120 32z"/>
<path d="M1650 2493 c-22 -20 -33 -40 -37 -69 -4 -35 -1 -46 23 -73 21 -23 41
-34 70 -38 35 -4 46 -1 73 23 23 21 34 41 38 71 5 39 2 46 -30 78 -45 45 -92
48 -137 8z"/>
<path d="M1984 2486 c-47 -47 -47 -95 0 -142 30 -30 33 -38 29 -77 -5 -38 -1
-49 23 -76 21 -23 41 -34 70 -38 35 -4 46 -1 73 23 23 21 34 41 38 71 5 38 2
46 -28 76 -30 30 -34 40 -34 86 0 47 -4 56 -33 82 -46 42 -93 40 -138 -5z"/>
<path d="M5214 2486 c-31 -31 -38 -33 -79 -29 -41 5 -47 3 -80 -30 -27 -27
-35 -43 -35 -71 0 -51 42 -95 97 -103 39 -5 46 -2 78 30 34 34 40 36 80 30 41
-5 47 -3 80 30 48 48 49 95 1 143 -47 47 -95 47 -142 0z"/>
<path d="M1024 2456 c-26 -26 -34 -42 -34 -71 0 -29 8 -45 34 -71 45 -45 91
-47 140 -4 31 28 34 35 32 77 -2 38 -9 52 -35 75 -45 41 -92 39 -137 -6z"/>
<path d="M5645 2457 c-54 -54 -45 -131 20 -162 52 -24 83 -19 121 19 26 26 34
42 34 70 0 51 -42 95 -97 103 -39 5 -46 2 -78 -30z"/>
<path d="M2324 2399 c-29 -14 -54 -61 -54 -99 0 -23 10 -42 34 -66 45 -45 92
-47 138 -5 28 25 33 36 33 76 0 40 -5 51 -33 76 -34 31 -78 37 -118 18z"/>
<path d="M1324 2326 c-26 -26 -34 -42 -34 -70 0 -51 42 -95 97 -103 39 -5 46
-2 79 31 33 33 36 40 31 79 -8 55 -52 97 -103 97 -28 0 -44 -8 -70 -34z"/>
<path d="M1854 2216 c-47 -47 -47 -95 0 -142 68 -68 176 -22 176 76 0 47 -55
100 -105 100 -29 0 -45 -8 -71 -34z"/>
<path d="M4863 2239 c-34 -18 -57 -70 -49 -111 4 -20 13 -41 21 -48 12 -10 10
-15 -18 -34 -61 -41 -74 -105 -31 -155 66 -79 184 -32 184 74 0 12 -9 34 -20
48 -20 25 -20 26 -1 32 34 10 71 63 71 101 0 70 -92 125 -157 93z"/>
<path d="M2464 2166 c-19 -19 -34 -30 -34 -25 0 18 -76 32 -112 20 -83 -27
-92 -148 -13 -186 55 -26 105 -14 141 34 10 12 15 11 42 -8 17 -12 33 -30 37
-40 7 -23 63 -51 100 -51 18 0 39 12 62 35 32 32 35 40 30 76 -5 41 -39 89
-63 89 -7 0 -15 9 -19 20 -11 34 -63 70 -102 70 -27 0 -43 -8 -69 -34z"/>
<path d="M2864 2136 c-51 -51 -44 -124 16 -159 35 -21 63 -21 105 -2 64 31 74
108 21 161 -26 26 -42 34 -71 34 -29 0 -45 -8 -71 -34z"/>
<path d="M1510 2123 c-22 -20 -33 -40 -37 -70 -5 -39 -2 -46 30 -78 27 -27 43
-35 72 -35 29 0 45 8 72 35 32 32 35 39 30 78 -7 55 -52 97 -102 97 -24 0 -44
-9 -65 -27z"/>
<path d="M5164 2086 c-26 -26 -34 -42 -34 -71 0 -29 8 -45 34 -71 38 -38 69
-43 120 -19 29 14 36 14 62 0 48 -25 82 -19 121 20 32 32 35 39 30 78 -4 30
-15 50 -37 70 -35 31 -67 34 -116 11 -30 -14 -35 -14 -56 0 -39 27 -86 20
-124 -18z"/>
<path d="M5760 2033 c-22 -20 -33 -40 -37 -69 -4 -35 -1 -46 23 -73 21 -23 41
-34 70 -38 35 -4 46 -1 73 23 23 21 34 41 38 71 5 39 2 46 -30 78 -45 45 -92
48 -137 8z"/>
<path d="M4113 1997 c-27 -14 -53 -64 -53 -102 0 -42 58 -95 105 -95 52 0 105
53 105 104 0 73 -91 127 -157 93z"/>
<path d="M2020 1933 c-22 -20 -33 -40 -37 -69 -4 -35 -1 -46 23 -73 21 -23 41
-34 71 -38 39 -5 46 -2 79 31 33 33 36 40 31 79 -7 55 -52 97 -102 97 -24 0
-44 -9 -65 -27z"/>
<path d="M2310 1903 c-22 -20 -33 -40 -37 -70 -5 -39 -2 -46 31 -79 33 -33 40
-36 77 -31 23 3 51 15 63 26 l21 20 -3 -38 c-3 -29 2 -44 23 -69 21 -25 24
-35 16 -51 -22 -40 -13 -81 24 -118 32 -32 39 -35 78 -30 30 4 50 15 71 38 24
27 27 38 23 73 -4 26 -15 48 -30 62 -21 18 -23 23 -11 39 40 55 -7 142 -81
152 -34 4 -46 1 -70 -20 l-30 -25 0 45 c0 38 -5 49 -33 74 -43 39 -90 39 -132
2z"/>
<path d="M2764 1896 c-73 -73 -17 -187 85 -173 30 4 40 1 49 -14 10 -16 9 -19
-4 -19 -9 0 -31 -15 -50 -34 -47 -47 -47 -95 0 -142 24 -24 43 -34 65 -34 28
0 31 -3 31 -31 0 -46 56 -99 105 -99 52 0 105 53 105 105 0 49 -53 105 -99
105 -26 0 -31 4 -31 24 0 13 -3 31 -6 40 -4 11 2 19 17 25 37 14 60 46 66 89
4 33 1 44 -25 73 -27 30 -36 34 -81 34 -40 0 -52 4 -57 17 -10 32 -64 68 -101
68 -27 0 -43 -8 -69 -34z"/>
<path d="M4606 1876 c-29 -27 -36 -41 -36 -71 0 -52 53 -105 104 -105 51 0 95
42 103 97 5 39 2 46 -30 78 -48 48 -92 48 -141 1z"/>
<path d="M4954 1816 c-39 -39 -45 -80 -17 -126 50 -86 176 -54 190 47 5 39 2
46 -30 78 -48 48 -95 49 -143 1z"/>
<path d="M1331 1804 c-23 -21 -34 -41 -38 -70 -4 -35 -1 -46 23 -73 21 -23 41
-34 71 -38 39 -5 46 -2 78 30 27 27 35 43 35 71 0 51 -42 95 -96 103 -35 4
-46 1 -73 -23z"/>
<path d="M1754 1820 c-12 -4 -31 -21 -43 -36 -48 -61 -7 -150 76 -161 39 -5
46 -2 79 31 33 33 36 40 31 79 -10 73 -77 114 -143 87z"/>
<path d="M4341 1774 c-23 -21 -34 -41 -38 -71 -5 -39 -2 -46 30 -78 19 -19 42
-35 51 -35 14 0 13 -4 -5 -29 -30 -41 -21 -96 22 -135 27 -24 38 -27 72 -23
52 7 87 42 94 93 4 33 1 45 -21 71 -14 17 -37 34 -51 37 l-26 7 21 26 c47 60
5 149 -76 160 -35 4 -46 1 -73 -23z"/>
<path d="M3274 1740 c-34 -13 -64 -59 -64 -97 0 -50 54 -103 104 -103 51 0 95
42 103 97 5 39 2 46 -30 78 -36 36 -68 43 -113 25z"/>
<path d="M5244 1716 c-26 -26 -34 -42 -34 -71 0 -52 53 -105 104 -105 51 0 95
42 103 97 5 39 2 46 -30 78 -48 48 -95 49 -143 1z"/>
<path d="M3593 1685 c-32 -32 -35 -40 -30 -76 3 -22 13 -49 23 -60 16 -18 16
-19 -10 -19 -43 0 -96 -58 -96 -105 0 -29 8 -45 34 -71 36 -36 62 -41 113 -24
58 21 81 104 42 154 -18 23 -18 26 -4 26 36 0 84 32 94 62 19 53 13 78 -25
114 -49 47 -93 47 -141 -1z"/>
<path d="M4021 1694 c-24 -20 -34 -23 -50 -15 -40 22 -81 13 -118 -24 -32 -32
-35 -39 -30 -78 8 -60 55 -101 108 -94 l38 5 -21 -28 c-45 -61 9 -160 87 -160
49 0 95 43 102 95 4 34 1 46 -22 73 -15 18 -34 32 -43 33 -10 1 2 5 25 11 54
12 93 56 93 105 0 27 -8 43 -34 69 -43 43 -90 46 -135 8z m18 -173 c9 -6 4
-10 -18 -13 -24 -4 -28 -2 -20 9 13 15 19 16 38 4z"/>
<path d="M4770 1693 c-22 -20 -33 -40 -37 -69 -4 -35 -1 -46 23 -73 21 -23 41
-34 71 -38 39 -5 46 -2 79 31 33 33 36 40 31 79 -7 55 -52 97 -102 97 -24 0
-44 -9 -65 -27z"/>
<path d="M5593 1655 c-32 -32 -35 -39 -30 -78 4 -30 15 -50 37 -69 67 -61 170
-11 170 82 0 23 -10 42 -34 66 -48 48 -95 47 -143 -1z"/>
<path d="M2044 1576 c-70 -70 -21 -176 81 -176 42 0 95 58 95 105 0 52 -53
105 -105 105 -29 0 -45 -8 -71 -34z"/>
<path d="M1695 1497 c-48 -48 -49 -95 -1 -143 26 -26 42 -34 71 -34 52 0 105
53 105 104 0 51 -42 95 -97 103 -39 5 -46 2 -78 -30z"/>
<path d="M3244 1416 c-40 -40 -46 -89 -16 -126 18 -23 18 -24 -10 -49 -20 -18
-31 -39 -35 -68 -5 -39 -2 -46 30 -78 48 -48 95 -49 143 -1 24 24 34 43 34 65
0 33 -19 81 -32 81 -4 0 6 12 22 28 22 19 33 39 37 69 5 39 2 46 -30 78 -48
48 -95 49 -143 1z"/>
<path d="M2635 1421 c-33 -14 -56 -47 -62 -89 -7 -54 33 -101 94 -109 39 -5
46 -2 78 30 48 48 49 95 1 143 -35 35 -68 42 -111 25z"/>
<path d="M3784 1420 c-12 -4 -31 -21 -44 -37 -48 -61 5 -163 86 -163 51 0 104
53 104 105 0 29 -8 45 -34 71 -35 35 -68 42 -112 24z"/>
<path d="M4845 1397 c-48 -48 -49 -95 -1 -143 24 -24 43 -34 66 -34 68 0 118
58 106 124 -8 44 -45 76 -95 83 -36 5 -44 2 -76 -30z"/>
<path d="M5324 1340 c-12 -4 -31 -21 -44 -37 -48 -61 5 -163 86 -163 51 0 104
53 104 105 0 29 -8 45 -34 71 -35 35 -68 42 -112 24z"/>
<path d="M5890 1293 c-22 -20 -33 -40 -37 -69 -4 -35 -1 -46 23 -73 21 -23 41
-34 71 -38 39 -5 46 -2 79 31 33 33 36 40 31 79 -7 55 -52 97 -102 97 -24 0
-44 -9 -65 -27z"/>
<path d="M1935 1257 c-27 -27 -35 -43 -35 -72 0 -29 8 -45 35 -72 32 -32 40
-35 77 -30 53 7 88 42 95 94 7 55 -33 102 -94 110 -39 5 -46 2 -78 -30z"/>
<path d="M4261 1264 c-23 -21 -34 -41 -38 -71 -5 -39 -2 -46 30 -78 69 -69
177 -24 177 74 0 45 -45 91 -96 98 -35 4 -46 1 -73 -23z"/>
<path d="M2371 1164 c-23 -21 -34 -41 -38 -71 -5 -39 -2 -46 30 -78 39 -39 81
-46 126 -19 85 50 55 177 -45 191 -35 4 -46 1 -73 -23z"/>
<path d="M2790 1163 c-22 -20 -33 -40 -37 -70 -5 -39 -2 -46 30 -78 48 -48 95
-49 143 -1 26 26 34 42 34 71 0 29 -8 45 -34 71 -44 44 -92 46 -136 7z"/>
<path d="M3833 1155 c-32 -32 -35 -39 -30 -78 4 -30 15 -50 37 -69 99 -89 230
54 136 148 -48 48 -95 47 -143 -1z"/>
<path d="M4874 1076 c-33 -33 -36 -40 -31 -79 8 -61 55 -101 110 -94 52 7 87
42 94 94 7 55 -33 102 -94 110 -39 5 -46 2 -79 -31z"/>
<path d="M1004 1016 c-53 -53 -43 -130 21 -161 52 -24 83 -19 121 19 53 53 43
130 -21 161 -52 24 -83 19 -121 -19z"/>
<path d="M3514 996 c-26 -26 -34 -42 -34 -71 0 -29 8 -45 34 -71 26 -26 42
-34 71 -34 29 0 45 8 71 34 26 26 34 42 34 71 0 52 -53 105 -105 105 -29 0
-45 -8 -71 -34z"/>
<path d="M4433 964 c-32 -16 -53 -55 -53 -101 0 -15 14 -39 34 -59 26 -26 42
-34 71 -34 29 0 45 8 71 34 49 49 42 125 -15 159 -36 21 -66 21 -108 1z"/>
<path d="M3053 915 c-32 -32 -35 -39 -30 -78 8 -55 52 -97 103 -97 51 0 104
53 104 105 0 52 -53 105 -105 105 -29 0 -45 -8 -72 -35z"/>
<path d="M4015 917 c-27 -27 -35 -43 -35 -72 0 -29 8 -45 35 -72 32 -32 39
-35 78 -30 55 7 97 52 97 102 0 50 -42 95 -97 102 -39 5 -46 2 -78 -30z"/>
<path d="M2574 866 c-48 -48 -47 -95 1 -143 32 -32 39 -35 78 -30 55 8 97 52
97 103 0 51 -53 104 -105 104 -29 0 -45 -8 -71 -34z"/>
<path d="M5594 806 c-33 -33 -36 -40 -31 -79 8 -61 55 -101 110 -94 52 7 87
42 94 94 7 55 -33 102 -94 110 -39 5 -46 2 -79 -31z"/>
<path d="M3724 700 c-70 -28 -83 -121 -24 -172 63 -57 155 -19 167 69 5 39 2
46 -30 78 -36 36 -68 43 -113 25z"/>
</g>
</svg>
